HIERARCHY
ROOT Pelvis
{
	OFFSET 0.000000 0.000000 0.000000
	CHANNELS 6 Xposition Yposition Zposition Zrotation Yrotation Xrotation 
	JOINT Left_hip
	{
		OFFSET 0.068973 -0.091024 -0.007589
		CHANNELS 3 Zrotation Yrotation Xrotation
		JOINT Left_knee
		{
			OFFSET 0.036482 -0.391037 -0.003979
			CHANNELS 3 Zrotation Yrotation Xrotation
			JOINT Left_ankle
			{
				OFFSET -0.012239 -0.415469 -0.043440
				CHANNELS 3 Zrotation Yrotation Xrotation
				JOINT Left_foot
				{
					OFFSET 0.023806 -0.058558 0.118702
					CHANNELS 3 Zrotation Yrotation Xrotation
					End Site
					{
						OFFSET 0.000000 0.000000 0.000000
					}
				}
			}
		}
	}
	JOINT Right_hip
	{
		OFFSET -0.066552 -0.090468 -0.003847
		CHANNELS 3 Zrotation Yrotation Xrotation
		JOINT Right_knee
		{
			OFFSET -0.042435 -0.398340 -0.006400
			CHANNELS 3 Zrotation Yrotation Xrotation
			JOINT Right_ankle
			{
				OFFSET 0.014931 -0.415421 -0.041327
				CHANNELS 3 Zrotation Yrotation Xrotation
				JOINT Right_foot
				{
					OFFSET -0.021472 -0.049410 0.121889
					CHANNELS 3 Zrotation Yrotation Xrotation
					End Site
					{
						OFFSET 0.000000 0.000000 0.000000
					}
				}
			}
		}
	}
	JOINT Spine1
	{
		OFFSET -0.002904 0.105700 -0.022855
		CHANNELS 3 Zrotation Yrotation Xrotation
		JOINT Spine2
		{
			OFFSET 0.004179 0.132554 -0.002501
			CHANNELS 3 Zrotation Yrotation Xrotation
			JOINT Spine3
			{
				OFFSET 0.001987 0.049603 0.025988
				CHANNELS 3 Zrotation Yrotation Xrotation
				JOINT Neck
				{
					OFFSET -0.003935 0.211336 -0.045638
					CHANNELS 3 Zrotation Yrotation Xrotation
					JOINT Head
					{
						OFFSET 0.003906 0.065991 0.051018
						CHANNELS 3 Zrotation Yrotation Xrotation
						End Site
						{
							OFFSET 0.000000 0.000000 0.000000
						}
					}
				}
				JOINT Left_collar
				{
					OFFSET 0.072882 0.117751 -0.036270
					CHANNELS 3 Zrotation Yrotation Xrotation
					JOINT Left_shoulder
					{
						OFFSET 0.082118 0.032630 -0.005771
						CHANNELS 3 Zrotation Yrotation Xrotation
						JOINT Left_elbow
						{
							OFFSET 0.263305 -0.015144 -0.028095
							CHANNELS 3 Zrotation Yrotation Xrotation
							JOINT Left_wrist
							{
								OFFSET 0.250741 0.010115 -0.000759
								CHANNELS 3 Zrotation Yrotation Xrotation
								JOINT Left_palm
								{
									OFFSET 0.080683 -0.009989 -0.013613
									CHANNELS 3 Zrotation Yrotation Xrotation
									End Site
									{
										OFFSET 0.000000 0.000000 0.000000
									}
								}
							}
						}
					}
				}
				JOINT Right_collar
				{
					OFFSET -0.074811 0.116132 -0.040385
					CHANNELS 3 Zrotation Yrotation Xrotation
					JOINT Right_shoulder
					{
						OFFSET -0.085089 0.032943 -0.007484
						CHANNELS 3 Zrotation Yrotation Xrotation
						JOINT Right_elbow
						{
							OFFSET -0.254763 -0.014219 -0.020321
							CHANNELS 3 Zrotation Yrotation Xrotation
							JOINT Right_wrist
							{
								OFFSET -0.256597 0.009233 -0.005063
								CHANNELS 3 Zrotation Yrotation Xrotation
								JOINT Right_palm
								{
									OFFSET -0.080528 -0.007219 -0.010379
									CHANNELS 3 Zrotation Yrotation Xrotation
									End Site
									{
										OFFSET 0.000000 0.000000 0.000000
									}
								}
							}
						}
					}
				}
			}
		}
	}
}
MOTION
Frames: 14
Frame Time: 0.100000
0.000000 0.000000 0.000000 174.147834 22.433569 -19.659321 8.265471 9.536240 17.507891 -2.917197 7.330641 -8.577766 -4.400685 10.475856 1.604612 3.291052 7.798702 -3.178334 -3.801045 -6.982615 15.489688 3.763783 -5.797717 -5.059524 5.953856 -5.104904 0.566633 -3.254684 -3.143950 3.087397 1.698702 0.569852 -2.231127 0.671439 -3.164026 10.347795 1.133131 -1.370269 -0.910449 0.635824 7.092362 4.498183 0.649220 -2.940875 -15.936002 -25.870546 -7.600724 9.322337 -52.682365 -2.381915 9.149619 2.739037 -26.354970 14.609112 -12.097215 -9.512817 10.232817 -10.289863 -3.491002 -23.612372 23.083921 12.072062 9.914505 53.700704 0.165524 13.045813 -5.500983 24.008448 9.100625 5.782154 5.764540 5.329954 11.116527 3.955479 -9.878090 
0.001346 0.000078 -0.001603 174.091128 22.578470 -19.806836 8.311685 9.553228 17.442642 -2.865328 7.295507 -8.520284 -4.361274 10.343578 1.664226 3.226468 7.923504 -3.033655 -3.720031 -7.028421 15.334938 3.710607 -5.895186 -4.721163 5.918461 -5.123494 0.482546 -3.331742 -3.116926 3.162691 1.700272 0.543143 -2.056009 0.713811 -3.304012 10.579503 1.108547 -1.409251 -0.984976 0.572809 7.070967 4.742891 0.632015 -3.100452 -16.204263 -25.891334 -7.943799 9.444079 -52.509442 -2.200842 9.175311 2.680422 -26.264110 14.479948 -12.059410 -9.169239 10.373247 -10.546088 -3.724822 -23.802970 22.968445 12.437283 9.713369 53.301797 0.518512 12.906332 -5.823126 24.804811 8.711559 5.738124 5.769137 5.510528 11.428902 4.061576 -10.057883 
0.004343 0.000286 -0.005286 174.095652 22.740805 -19.984944 8.254019 9.514538 17.146914 -2.734539 7.242555 -8.197925 -4.173605 10.190211 1.722911 2.983164 8.227847 -2.803503 -3.600301 -6.973522 14.680420 3.538776 -6.154400 -3.627770 5.726558 -5.113392 0.234372 -3.261297 -3.151520 3.185197 1.606373 0.485744 -1.408811 0.737584 -3.486691 11.385169 1.080435 -1.460696 -1.040708 0.466369 7.109995 5.135748 0.845202 -3.414154 -17.210826 -25.915038 -8.699995 9.662202 -52.052628 -2.165756 9.046624 2.641404 -26.272057 13.923472 -12.362400 -8.914694 10.637086 -10.773236 -3.928524 -24.000463 22.875661 13.208158 9.667428 52.894868 0.766415 12.670290 -6.247516 25.772420 8.216110 5.896342 5.940922 5.792695 11.749295 4.108239 -10.177821 
0.009599 0.001087 -0.013963 174.308710 22.768090 -19.877569 7.943450 9.484451 16.394914 -2.708980 7.327213 -8.030764 -3.940641 10.075157 1.959487 2.867996 8.558372 -2.571205 -3.533340 -6.778858 13.105338 3.303453 -6.602433 -1.954212 5.516876 -5.116510 -0.114213 -3.253624 -2.999307 3.303175 1.653780 0.271150 -0.215185 0.621580 -3.784227 12.760639 0.934295 -1.588165 -0.769512 0.441018 7.165553 6.787726 1.249294 -3.755621 -16.503854 -25.571349 -10.334055 10.383676 -51.283127 -2.993538 8.711316 2.716412 -26.088481 12.712740 -12.534471 -8.981265 10.617975 -10.845267 -3.859603 -24.244270 22.238618 14.802141 10.073120 52.656491 1.587658 12.581033 -6.606846 27.052138 7.674304 5.942076 6.439641 5.653261 11.684562 3.921329 -10.221429 
0.018058 0.002832 -0.027707 174.814500 22.201958 -18.746896 7.152563 9.387313 13.881790 -2.588051 7.902910 -7.263814 -3.174333 10.208986 2.318389 2.478341 8.981033 -2.350944 -3.315807 -5.984937 9.848255 3.094263 -7.048777 -0.096365 4.196862 -4.889626 -0.270881 -1.102636 -3.518623 4.671422 1.778603 0.050337 0.907346 0.818682 -4.166571 14.649036 0.591263 -1.585223 -0.781780 0.943906 5.667345 13.435640 1.603320 -4.450248 -10.884410 -24.679078 -11.348137 10.448065 -50.640825 -5.249571 10.085947 3.330357 -24.795487 11.034007 -12.755624 -9.595177 11.486934 -11.010874 -3.847790 -23.947149 21.222908 15.905740 10.182385 51.983256 3.200483 13.440945 -6.803945 28.115297 6.988162 5.959625 7.701827 5.277151 11.531387 3.785534 -9.858483 
0.033117 0.006381 -0.050646 175.640308 21.240963 -17.004961 6.012828 9.073665 9.245601 -2.206030 9.041047 -4.733830 -1.830960 10.206196 2.342695 1.839532 9.723726 -1.486292 -3.088166 -4.921628 4.746300 2.743685 -7.820227 2.779479 2.345063 -4.313324 -0.295947 1.726792 -3.999882 6.240065 1.727786 0.106375 3.900033 1.428114 -4.539361 18.625553 0.498067 -1.416159 -0.996827 0.643664 4.678721 20.110509 1.523345 -5.970856 -6.223219 -23.862623 -12.690038 10.008803 -49.053119 -8.335493 10.574304 5.417424 -27.211448 6.057501 -12.393642 -10.658397 11.899766 -11.131913 -3.771037 -22.576146 21.149921 17.259302 10.424826 49.481777 5.176384 12.813274 -9.488011 31.455283 2.761694 5.756771 9.596522 5.499944 11.631971 3.652604 -9.302362 
0.059369 0.015196 -0.091396 176.352094 21.282068 -13.653111 4.698518 7.926592 -0.574476 -1.224548 9.960054 1.771870 -0.564746 10.024796 2.252897 1.551680 10.635640 -1.050107 -2.525022 -3.741445 -4.352505 1.669189 -8.855071 7.870306 1.222013 -4.518110 -0.143761 2.041798 -3.738393 6.854489 1.142974 0.444711 11.639295 2.315817 -5.334671 21.932904 1.442712 -1.254101 -1.116173 -0.379981 4.442401 21.202359 3.364446 -7.474899 -8.550855 -20.951697 -16.172946 8.777835 -47.676153 -11.078193 10.538943 8.623448 -33.402767 -0.809020 -11.438922 -11.630783 11.075216 -11.495476 -4.042287 -19.729071 19.827345 20.456699 10.060298 47.122369 6.771456 10.633727 -14.371278 35.974841 -3.672018 5.763939 11.524942 5.640961 12.133741 3.737229 -8.574445 
0.091408 0.034630 -0.140808 175.470828 19.685415 -12.239738 6.500891 10.418079 -11.138958 -1.432876 6.616175 11.272244 -2.296312 15.857580 5.442264 6.152727 6.969744 -8.944387 0.400682 -3.225893 -12.745059 1.634439 -2.533160 12.940911 4.012779 -10.774520 1.265305 -8.699098 2.687144 4.992821 1.970899 1.100585 25.600252 1.846604 -6.581524 24.812930 3.238671 1.098240 -1.603977 -5.494513 1.063141 20.591700 8.177642 -3.763296 -15.869332 -19.393548 -25.430475 12.016052 -39.141514 -10.018965 3.768727 7.977757 -43.642735 5.737119 4.294698 -11.467209 12.005383 -16.985915 -9.933730 -16.629654 17.540002 28.750600 11.587030 42.092123 5.599166 0.646093 -11.647630 42.757751 0.739954 -5.806536 11.966981 4.060232 18.166247 5.129932 -7.057209 
0.117830 0.068036 -0.187214 175.484616 18.982259 -6.114666 7.405036 9.051758 -28.579502 -1.775395 8.351618 25.128845 -1.632434 16.311995 2.871471 7.008309 7.316405 -7.610880 0.151127 -0.966321 -30.099413 2.370747 -4.412131 25.855939 3.171516 -11.026049 -0.675384 -10.645956 2.925679 2.958791 1.910897 0.797899 38.186921 1.958319 -5.603803 24.286405 4.404754 1.694227 -3.228999 -6.627744 3.039521 17.321735 11.107386 -4.447676 -21.395116 -16.142281 -28.216972 10.347843 -29.133440 -12.286936 0.834068 9.346243 -48.315514 4.934100 7.072545 -12.892903 10.828193 -15.058680 -8.974306 -16.287353 16.321931 31.647130 12.127074 37.205216 6.446294 -1.788164 -13.836083 46.723222 -2.710749 -9.875674 13.045018 -2.707079 16.621336 4.183918 -5.672309 
0.132087 0.131560 -0.219622 176.071575 18.610431 -1.177127 9.242626 10.086360 -46.896557 -3.488033 12.137904 44.761155 0.248783 16.940022 -4.550711 5.359227 7.184462 -6.019627 -2.499094 -0.957947 -49.859359 3.590485 -7.594264 46.740191 2.752938 -10.989213 -7.001019 -11.837276 3.850338 2.024703 1.319905 -0.098493 48.388668 2.619814 -5.167922 20.014122 5.654576 1.721086 -3.666126 -9.315046 5.435842 17.160228 12.586592 -4.569712 -23.767479 -12.015978 -30.138051 8.587198 -19.361830 -12.980282 -3.255166 5.561576 -46.832466 7.867003 8.070959 -12.974223 10.231936 -12.840414 -7.958701 -16.683049 16.372689 33.722798 13.124846 32.863981 6.696421 -4.368831 -10.692630 44.430541 -0.834699 -12.652816 12.891176 -7.463696 15.270491 2.964977 -4.624285 
0.130538 0.235618 -0.233997 176.550747 17.735113 -1.654934 11.479661 11.817538 -61.954420 -3.976204 15.342591 69.266967 2.502699 19.188501 -14.184094 3.457144 6.992020 -4.605908 -5.833311 -3.192195 -65.807912 4.436568 -11.539407 71.269100 1.350929 -10.083748 -14.661003 -10.794645 3.553132 0.421187 0.817603 -0.763277 56.220784 4.230648 -5.595776 17.503107 6.580849 1.268579 -4.482304 -11.938171 7.844670 18.288592 12.775833 -4.762403 -25.412841 -9.800232 -31.124811 8.408158 -8.249593 -12.497449 -7.599140 -1.513909 -41.336891 15.693302 7.906643 -12.900262 14.278999 -10.236419 -6.615463 -17.336766 18.381929 34.527157 14.854144 28.525007 5.893792 -6.855334 -5.658656 38.245397 3.185504 -14.092422 12.784122 -9.543671 14.305331 1.353806 -3.064204 
0.118860 0.355026 -0.227872 177.895836 16.132179 -6.402781 13.202886 14.166248 -72.773025 -4.447486 18.189684 93.408061 2.837534 22.733285 -21.986251 3.129606 4.850128 -6.018770 -8.598853 -6.447171 -77.906575 4.973264 -13.963382 95.059324 1.833567 -9.744922 -21.098147 -13.407749 4.934877 -2.715658 0.402032 -0.724732 60.644983 5.616236 -5.685187 17.076614 7.634901 0.541118 -3.024803 -14.931675 8.756761 18.327806 12.725673 -5.309365 -25.220407 -7.973048 -32.884765 9.468584 2.639313 -11.547247 -13.616564 -7.423845 -34.730974 22.722829 9.365754 -13.193931 19.082980 -8.401921 -5.531923 -18.257106 19.862059 35.218789 16.001806 26.077011 2.385839 -10.917736 -3.401483 32.574308 2.505028 -16.780343 12.620504 -12.679866 14.050190 -0.062778 -1.326999 
0.113003 0.489770 -0.221422 178.984087 13.265566 -14.072391 15.996351 18.540108 -80.175241 -3.311589 19.985011 115.167323 2.385546 24.351620 -26.644046 3.163528 3.168333 -8.942193 -9.794093 -8.740864 -87.300533 4.515781 -16.261201 115.302636 1.289764 -8.428886 -24.062587 -14.661084 5.405763 -5.676884 -0.670356 -1.129090 65.646841 6.516225 -4.728613 16.693664 7.826360 0.488583 -3.234921 -17.807222 12.524885 18.672343 9.088906 -6.064256 -22.675616 -5.404752 -31.209117 9.151702 9.949936 -11.541670 -18.145000 -10.075425 -31.746911 25.252279 13.471038 -13.566200 19.960207 -6.909263 -4.330099 -17.751304 21.429448 33.388994 16.657421 23.483752 2.036646 -13.598239 -2.882774 22.487501 0.814315 -21.731376 10.744456 -13.834584 13.892754 -0.972987 0.690564 
0.108739 0.621063 -0.206506 -178.925903 11.991357 -23.453116 18.773512 20.898241 -85.515570 -1.966201 20.004231 133.131876 3.841016 24.289555 -26.788278 0.458264 2.952916 -11.856081 -11.592862 -11.119612 -94.942437 2.880612 -17.083496 132.702908 0.075774 -6.351492 -23.606224 -13.659701 4.714796 -7.549527 -1.768930 -2.974682 69.576283 7.463258 -5.254306 14.500246 7.348144 0.147523 -4.479889 -24.187930 20.359795 22.901657 1.815154 -1.795448 -17.172343 -3.821266 -30.298397 9.830166 12.778866 -10.172147 -18.017992 -14.770499 -26.370335 26.004843 22.372925 -14.811327 7.006779 -5.651176 -1.692687 -12.041415 22.108703 30.734751 16.544770 21.399145 2.333518 -14.057918 -2.044896 13.118191 -0.390685 -31.810854 9.223866 -15.044958 15.634520 -3.012569 2.661590 
